# xmcd CD database file
#
# Track frame offsets:
#	150
#	18154
#	35526
#	55030
#	59861
#	88670
#	123715
#	144140
#	173289
#	187290
#	206644
#	243326
#	281860
#
# Disc length: 4064 seconds
#
# Revision: 0
# Processed by: cddbd v1.5.1PL0 Copyright (c) Steve Scherf et al.
# Submitted via: CDex 1.51
#
DISCID=bd0fde0d
DTITLE=YAMANO BIG BAND JAZZ CONTEST - THE 36th YAMANO BIG BAND JAZZ CONTEST Disc2
DYEAR=2005
DGENRE=Jazz
TTITLE0=The Last Dynasty
TTITLE1=Vencido
TTITLE2=Bebop
TTITLE3=It goes without seeing that blue sky
TTITLE4=EL VIAJE ADELANTE (THE JOURNEY AHEAD)
TTITLE5=ON FIRE
TTITLE6=Gone
TTITLE7=Where flamingos fly
TTITLE8=Little wing
TTITLE9=Back In Town
TTITLE10=New York Injection
TTITLE11=Matumba~Amad
TTITLE12=The Mooche
EXTD=YEAR: 2005
EXTT0=
EXTT1=
EXTT2=
EXTT3=
EXTT4=
EXTT5=
EXTT6=
EXTT7=
EXTT8=
EXTT9=
EXTT10=
EXTT11=
EXTT12=
PLAYORDER=
